<?xml version="1.0" standalone="no"?>
<!DOCTYPE svg PUBLIC "-//W3C//DTD SVG 20010904//EN"
 "http://www.w3.org/TR/2001/REC-SVG-20010904/DTD/svg10.dtd">
<svg version="1.0" xmlns="http://www.w3.org/2000/svg"
 width="1666.000000pt" height="1666.000000pt" viewBox="0 0 1666.000000 1666.000000"
 preserveAspectRatio="xMidYMid meet">
<metadata>
Created by potrace 1.13, written by Peter Selinger 2001-2015
</metadata>
<g transform="translate(0.000000,1666.000000) scale(0.100000,-0.100000)"
fill="#000000" stroke="none">
<path fill="#009639" d="M8250 15668 c-60 -17 -6189 -3558 -6233 -3602 -21 -21 -51 -63 -66
-95 l-26 -56 0 -3590 0 -3590 33 -68 c19 -38 49 -80 70 -98 44 -36 6162 -3570
6211 -3587 46 -16 150 -15 197 2 22 7 1421 811 3109 1785 3351 1934 3139 1806
3184 1926 l21 56 -2 3587 -3 3587 -27 55 c-15 30 -42 70 -60 87 -41 39 -6154
3570 -6223 3595 -55 19 -130 22 -185 6z m-2420 -3681 c272 -64 505 -182 676
-340 38 -36 915 -1077 1949 -2315 l1880 -2250 5 2126 5 2127 22 77 c66 233
221 422 428 524 132 65 220 84 385 84 166 0 253 -19 385 -84 198 -99 343 -268
413 -483 45 -138 45 -109 39 -3173 -5 -2888 -5 -2905 -26 -2983 -70 -266 -295
-487 -586 -577 -441 -135 -1042 20 -1383 358 -32 31 -901 1067 -1932 2301
l-1875 2245 -5 -2155 -5 -2154 -31 -87 c-94 -262 -298 -454 -561 -530 -66 -19
-102 -23 -233 -23 -176 0 -256 17 -384 81 -91 46 -117 65 -200 144 -112 107
-191 241 -232 395 -18 68 -19 172 -19 3045 0 2788 1 2979 17 3042 80 309 340
542 690 618 136 29 426 23 578 -13z"/>
</g>
</svg>
